<?xml version="1.0" encoding="UTF-8" standalone="no"?>
<!DOCTYPE svg PUBLIC "-//W3C//DTD SVG 1.1//EN" "http://www.w3.org/Graphics/SVG/1.1/DTD/svg11.dtd">
<svg width="100%" height="100%" viewBox="0 0 457 349" version="1.1" xmlns="http://www.w3.org/2000/svg" xmlns:xlink="http://www.w3.org/1999/xlink" xml:space="preserve" xmlns:serif="http://www.serif.com/" style="fill-rule:evenodd;clip-rule:evenodd;stroke-linecap:round;stroke-linejoin:round;stroke-miterlimit:1.5;">
    <g id="layer1" transform="matrix(1,0,0,1,18.0436,-2)">
        <g transform="matrix(0.899614,0,0,0.927017,4.84761,39.0251)">
            <ellipse cx="228.532" cy="147.971" rx="88.927" ry="86.298" style="fill:white;stroke:rgb(222,222,222);stroke-width:7.66px;"/>
        </g>
        <g id="path10" transform="matrix(1,0,0,1,0.0468206,127.961)">
            <path d="M240.914,82.828L222.274,82.828C218.394,82.578 217.19,79.808 218.778,76.813L238.174,44.765C238.544,44.131 239.112,43.969 240.2,44.095L240.2,44.089L240.216,44.089C243.726,44.567 246.472,42.504 247.866,40.786C248.748,39.556 250.206,39.838 250.806,40.088C258.418,43.801 263.44,51.571 263.44,60.301C263.44,72.721 253.336,82.826 240.914,82.826M215.648,71.75C214.216,74.12 212.628,76.485 210.414,76.485C208.2,76.485 206.658,74.12 205.226,71.751L188.58,44.246C186.294,40.476 188.71,37.776 191.55,37.776L229.33,37.776C232.138,37.776 234.524,40.413 232.372,44.121L215.648,71.75ZM210.44,89.28C208.336,89.28 206.638,87.58 206.638,85.48C206.638,83.38 208.336,81.677 210.44,81.677C212.538,81.677 214.237,83.38 214.237,85.48C214.237,87.58 212.537,89.28 210.44,89.28M197.997,82.828L179.96,82.828C167.538,82.828 157.434,72.724 157.434,60.303C157.434,51.589 162.44,43.828 170.034,40.109C170.612,39.864 171.997,39.572 172.882,40.655C174.278,42.442 175.898,43.687 178.69,44.025C179.726,44.151 180.628,44.095 180.628,44.095C182.07,43.927 182.664,44.718 182.904,45.103L201.67,76.11C203.93,79.5 202.658,82.828 197.997,82.828M179.997,31.308C182.097,31.308 183.8,33.011 183.8,35.108C183.8,37.208 182.096,38.912 179.997,38.912C177.897,38.912 176.194,37.208 176.194,35.109C176.194,33.009 177.898,31.307 179.997,31.307M184.507,24.963C188.622,14.503 198.882,7.303 210.414,7.303C221.944,7.303 232.204,14.503 236.32,24.963C237.03,27.02 235.674,27.807 235.674,27.807C233.721,29.103 233.076,30.587 232.866,31.077L232.861,31.077C232.665,31.504 232.306,32.474 231.201,32.474L189.654,32.474C188.561,32.474 188.274,31.818 187.998,31.088C187.918,30.878 187.458,29.318 185.123,27.768C184.525,27.374 183.893,26.748 184.509,24.962M240.867,31.306C242.967,31.306 244.67,33.009 244.67,35.106C244.67,37.206 242.966,38.91 240.866,38.91C238.768,38.91 237.066,37.206 237.066,35.107C237.066,33.007 238.768,31.305 240.866,31.305M251.309,34.513C251.283,34.503 251.256,34.486 251.219,34.473C250.184,34.096 249.751,33.293 249.365,32.133C248.495,29.529 246.512,27.633 244.028,26.701C242.688,26.164 241.922,24.893 241.776,24.445L241.771,24.45C237.263,11.24 224.658,2 210.413,2C196.169,2 183.56,11.235 179.053,24.453L179.053,24.448C178.898,24.912 178.101,26.245 176.685,26.751C174.232,27.714 172.418,29.277 171.45,32.246C171.076,33.396 170.7,34.096 169.612,34.496C169.576,34.512 169.544,34.522 169.518,34.538C159.122,38.736 152.138,48.856 152.138,60.304C152.138,75.648 164.618,88.132 179.961,88.132L198.889,88.132C201.623,88.132 201.982,88.862 202.899,90.402C204.363,92.862 207.274,94.472 210.415,94.472C213.831,94.472 216.81,92.554 218.331,89.737C218.841,88.934 219.634,88.133 221.935,88.133L240.915,88.133C256.258,88.133 268.738,75.65 268.738,60.306C268.738,48.836 261.733,38.702 251.31,34.519" style="fill:rgb(210,31,21);fill-rule:nonzero;"/>
        </g>
        <g id="text4168">
        </g>
        <g id="text4169">
        </g>
    </g>
</svg>
